{"glyphs":{"0":{"ha":1111,"x_min":0,"x_max":0,"o":"m 879 957 b 556 1111 803 1051 686 1111 b 556 1111 556 1111 556 1111 b 139 694 325 1111 139 925 l 139 417 b 556 0 139 187 326 0 b 972 417 786 0 972 187 l 972 694 l 972 695 b 879 957 972 794 937 886 z m 879 417 b 556 93 879 238 734 93 b 232 417 377 93 232 238 l 232 694 b 556 1018 232 873 377 1018 b 879 694 734 1018 879 873 z "},"1":{"ha":540,"x_min":0,"x_max":0,"o":"m 139 1111 l 139 1018 l 309 1018 l 309 0 l 403 0 l 403 1111 z "},"2":{"ha":1111,"x_min":0,"x_max":0,"o":"m 440 508 l 671 509 l 671 509 b 972 810 836 509 972 642 b 671 1111 972 985 831 1111 l 139 1111 l 139 1018 l 671 1018 b 879 810 781 1018 879 931 b 671 602 879 693 783 602 l 440 602 l 440 602 b 139 301 278 602 139 472 l 139 0 l 972 0 l 972 93 l 232 93 l 232 301 b 440 508 232 418 328 508 z "},"3":{"ha":1111,"x_min":0,"x_max":0,"o":"m 832 556 b 973 810 916 609 973 703 b 972 810 973 810 972 810 b 671 1111 972 976 837 1111 l 139 1111 l 139 1018 l 671 1018 b 879 810 786 1018 879 925 b 671 602 879 695 786 602 l 509 602 l 509 509 l 671 509 b 879 301 786 509 879 416 b 671 93 879 187 786 93 l 139 93 l 139 0 l 671 0 b 972 301 837 0 972 135 l 972 301 b 832 556 972 408 916 502 z "},"4":{"ha":1111,"x_min":0,"x_max":0,"o":"m 879 1111 l 879 602 l 440 602 b 232 810 325 602 232 695 l 232 1111 l 139 1111 l 139 810 b 440 509 139 644 274 509 l 879 509 l 879 0 l 972 0 l 972 1111 z "},"5":{"ha":1111,"x_min":0,"x_max":0,"o":"m 232 602 l 232 1018 l 972 1018 l 972 1111 l 139 1111 l 139 509 l 671 509 b 879 301 786 509 879 416 b 671 93 879 187 786 93 l 139 93 l 139 0 l 671 0 b 972 301 837 0 972 135 b 671 602 972 467 837 602 z "},"6":{"ha":1111,"x_min":0,"x_max":0,"o":"m 671 602 l 232 602 l 232 810 b 440 1018 232 925 325 1018 l 556 1018 l 556 1111 l 440 1111 b 139 810 274 1111 139 976 l 139 301 b 440 0 139 135 274 0 l 671 0 b 972 301 837 0 972 135 b 671 602 972 467 837 602 z m 671 93 l 440 93 b 232 301 325 93 232 187 l 232 509 l 671 509 b 879 301 786 509 879 416 b 671 93 879 186 786 93 z "},"7":{"ha":1111,"x_min":0,"x_max":0,"o":"m 139 1111 l 139 1018 l 858 1018 l 139 0 l 253 0 l 972 1018 l 972 1111 z "},"8":{"ha":1111,"x_min":0,"x_max":0,"o":"m 832 556 b 973 810 917 608 973 703 b 671 1111 973 976 838 1111 l 440 1111 b 139 810 274 1111 139 976 b 279 556 139 703 195 609 b 139 301 195 502 139 408 b 440 0 139 135 274 0 l 671 0 b 972 301 838 0 972 135 b 832 556 972 408 917 503 z m 232 810 b 232 810 232 810 232 810 b 440 1018 232 925 326 1018 l 671 1018 b 879 810 786 1018 879 925 b 672 602 879 696 786 603 l 439 602 b 232 810 325 603 232 696 z m 671 93 l 440 93 b 232 301 326 93 232 187 b 439 509 232 415 325 508 l 672 509 b 879 301 786 508 879 415 b 879 301 879 301 879 301 b 671 93 879 186 786 93 z "},"9":{"ha":1111,"x_min":0,"x_max":0,"o":"m 440 509 l 879 509 l 879 301 b 671 93 879 187 786 93 l 556 93 l 556 0 l 671 0 b 972 301 837 0 972 135 l 972 810 b 671 1111 972 976 837 1111 l 440 1111 b 139 810 274 1111 139 976 b 440 509 139 644 274 509 z m 440 1018 l 671 1018 b 879 810 786 1018 879 925 l 879 602 l 440 602 b 232 810 325 602 232 695 b 440 1018 232 925 325 1018 z "},"'":{"ha":371,"x_min":0,"x_max":0,"o":"m 139 926 l 232 926 l 232 1111 l 139 1111 z "}," ":{"ha":556,"x_min":0,"x_max":0,"o":""},"!":{"ha":417,"x_min":0,"x_max":0,"o":"m 255 280 l 255 1112 l 162 1112 l 162 280 z m 209 140 b 139 70 170 140 139 109 b 209 1 139 32 170 1 b 278 70 247 1 278 32 b 209 140 278 109 247 140 z "},"\"":{"ha":557,"x_min":0,"x_max":0,"o":"m 325 1111 l 325 926 l 419 926 l 419 1111 z m 139 926 l 232 926 l 232 1111 l 139 1111 z "},"#":{"ha":1019,"x_min":0,"x_max":0,"o":"m 695 926 l 601 926 l 601 740 l 418 740 l 418 926 l 325 926 l 325 740 l 139 738 l 139 645 l 325 646 l 325 463 l 139 462 l 139 368 l 325 370 l 325 184 l 418 184 l 418 370 l 601 370 l 601 184 l 695 184 l 695 370 l 881 370 l 881 463 l 695 463 l 695 646 l 881 646 l 881 740 l 695 740 z m 601 463 l 418 463 l 418 646 l 601 646 z "},"$":{"ha":1389,"x_min":0,"x_max":0,"o":"m 742 1204 l 648 1204 l 648 1111 l 440 1111 l 440 1111 b 139 810 274 1111 139 976 b 440 509 139 644 274 509 l 648 509 l 648 93 l 139 93 l 139 0 l 648 0 l 648 -93 l 741 -93 l 741 0 l 949 0 b 1250 301 1115 0 1250 135 b 949 602 1250 467 1115 602 l 741 602 l 741 1018 l 1250 1018 l 1250 1111 l 742 1111 z m 648 602 l 440 602 b 232 810 325 602 232 695 b 440 1018 232 925 325 1018 l 648 1018 z m 741 509 l 949 509 b 1157 301 1063 509 1157 416 b 949 93 1157 186 1063 93 l 741 93 z "},"&":{"ha":1111,"x_min":0,"x_max":0,"o":"m 232 810 b 440 1018 232 925 326 1018 l 602 1018 l 602 1111 l 440 1111 b 139 810 274 1111 139 976 l 139 810 b 279 556 139 703 195 609 b 139 301 195 502 139 408 b 139 301 139 301 139 301 b 440 0 139 135 274 0 l 973 0 l 973 93 l 879 93 l 879 509 l 973 509 l 973 602 l 440 602 b 232 810 326 602 232 695 z m 786 93 l 440 93 b 232 301 326 93 232 187 b 440 509 232 416 326 509 l 786 509 z "},"’":{"ha":371,"x_min":0,"x_max":0,"o":"m 139 926 l 232 926 l 232 1111 l 139 1111 z "},"(":{"ha":525,"x_min":0,"x_max":0,"o":"m 283 1204 b 138 558 190 1008 138 790 b 283 -93 138 327 190 103 l 387 -93 b 232 554 288 101 232 321 b 387 1204 232 787 288 1010 z "},")":{"ha":525,"x_min":0,"x_max":0,"o":"m 138 1204 b 293 557 237 1010 293 790 b 138 -93 293 324 237 101 l 242 -93 b 387 554 335 103 387 323 b 242 1204 387 785 335 1008 z "},"*":{"ha":644,"x_min":0,"x_max":0,"o":"m 369 740 l 369 845 l 460 792 l 507 873 l 416 926 l 507 978 l 460 1059 l 369 1006 l 369 1111 l 276 1111 l 276 1006 l 186 1059 l 139 978 l 230 926 l 139 873 l 186 792 l 276 845 l 276 740 z "},"+":{"ha":1019,"x_min":0,"x_max":0,"o":"m 557 927 l 463 927 l 463 602 l 139 602 l 139 509 l 463 509 l 463 184 l 557 184 l 557 509 l 881 509 l 881 602 l 557 602 z "},",":{"ha":371,"x_min":0,"x_max":0,"o":"m 139 -92 l 232 -92 l 232 94 l 139 94 z "},"-":{"ha":649,"x_min":0,"x_max":0,"o":"m 139 509 l 510 509 l 510 602 l 139 602 z "},".":{"ha":417,"x_min":0,"x_max":0,"o":"m 139 70 b 209 0 139 31 170 0 b 278 70 247 0 278 31 b 209 140 278 108 247 140 b 139 70 170 140 139 108 z "},"/":{"ha":806,"x_min":0,"x_max":0,"o":"m 668 1111 l 568 1111 l 139 0 l 239 0 z "},":":{"ha":417,"x_min":0,"x_max":0,"o":"m 278 373 b 209 443 278 412 247 443 b 139 373 170 443 139 412 b 209 303 139 335 170 303 b 278 373 247 303 278 335 z m 209 140 b 139 70 170 140 139 108 b 209 0 139 31 170 0 b 278 70 247 0 278 31 b 209 140 278 108 247 140 z "},";":{"ha":417,"x_min":0,"x_max":0,"o":"m 162 94 l 162 -92 l 255 -92 l 255 94 z m 209 445 b 139 376 170 445 139 414 b 209 306 139 337 170 306 b 278 376 247 306 278 337 b 209 445 278 414 247 445 z "},"<":{"ha":1139,"x_min":0,"x_max":0,"o":"m 799 742 l 139 371 l 799 0 l 1001 0 l 341 371 l 1001 742 z "},"=":{"ha":1019,"x_min":0,"x_max":0,"o":"m 139 464 l 139 371 l 881 371 l 881 464 z m 139 647 l 881 647 l 881 740 l 139 740 z "},">":{"ha":1139,"x_min":0,"x_max":0,"o":"m 139 742 l 799 371 l 139 0 l 341 0 l 1001 371 l 341 742 z "},"?":{"ha":949,"x_min":0,"x_max":0,"o":"m 811 810 b 510 1111 811 976 676 1111 l 162 1111 l 162 1018 l 510 1018 b 718 810 624 1018 718 925 b 510 602 718 695 624 602 l 162 602 l 162 279 l 255 279 l 255 509 l 510 509 b 811 810 676 509 811 644 z m 209 140 b 139 70 170 140 139 108 b 209 0 139 31 170 0 b 278 70 247 0 278 31 b 209 140 278 108 247 140 z "},"@":{"ha":1389,"x_min":0,"x_max":0,"o":"m 139 556 b 694 0 139 249 388 0 l 1250 0 l 1250 93 l 694 93 b 232 556 440 93 232 301 b 694 1018 232 810 440 1018 l 1157 1018 l 1157 373 l 970 373 l 970 831 l 694 831 b 419 556 542 831 419 708 b 694 280 419 403 542 280 l 1250 280 l 1250 1111 l 694 1111 b 139 556 388 1111 139 862 z m 877 373 l 694 373 b 512 556 594 373 512 455 b 694 738 512 656 594 738 l 877 738 z "},"A":{"ha":1526,"x_min":0,"x_max":0,"o":"m 139 0 l 252 0 l 763 909 l 1274 0 l 1388 0 l 764 1111 z "},"B":{"ha":1389,"x_min":0,"x_max":0,"o":"m 1110 556 b 1250 810 1194 608 1250 703 b 949 1111 1250 976 1115 1111 l 139 1111 l 139 1018 l 949 1018 b 1157 810 1064 1018 1157 925 b 949 602 1157 695 1064 602 b 739 602 949 602 859 602 b 139 602 499 602 139 602 l 139 509 l 949 509 b 1157 301 1064 509 1157 416 b 949 93 1157 187 1064 93 l 139 93 l 139 0 l 949 0 b 1250 301 1115 0 1250 135 b 1110 556 1250 408 1194 503 z "},"C":{"ha":1389,"x_min":0,"x_max":0,"o":"m 139 556 b 694 0 139 249 388 0 l 1250 0 l 1250 93 l 694 93 b 232 556 440 93 232 301 b 694 1018 232 810 440 1018 l 1250 1018 l 1250 1111 l 694 1111 b 139 556 388 1111 139 862 z "},"D":{"ha":1389,"x_min":0,"x_max":0,"o":"m 694 1111 l 139 1111 l 139 1018 l 694 1018 b 1157 556 949 1018 1157 810 b 694 93 1157 301 949 93 l 139 93 l 139 0 l 694 0 b 1250 556 1001 0 1250 249 b 694 1111 1250 862 1001 1111 z "},"E":{"ha":1389,"x_min":0,"x_max":0,"o":"m 694 1111 b 139 556 388 1111 139 862 b 694 0 139 249 388 0 l 1250 0 l 1250 93 l 694 93 b 232 556 440 93 232 301 b 694 1018 232 810 440 1018 l 1250 1018 l 1250 1111 z m 761 556 b 830 486 761 517 792 486 b 900 556 869 486 900 517 b 830 625 900 594 869 625 b 761 556 792 625 761 594 z "},"F":{"ha":1389,"x_min":0,"x_max":0,"o":"m 139 602 l 139 0 l 232 0 l 232 509 l 949 509 l 949 602 z m 1250 1018 l 1250 1111 l 139 1111 l 139 1018 z "},"G":{"ha":1389,"x_min":0,"x_max":0,"o":"m 139 556 b 694 0 139 249 388 0 l 1250 0 l 1250 602 l 852 602 l 852 509 l 1157 509 l 1157 93 l 694 93 b 232 556 440 93 232 301 b 694 1018 232 810 440 1018 l 1250 1018 l 1250 1111 l 694 1111 b 139 556 388 1111 139 862 z "},"H":{"ha":1389,"x_min":0,"x_max":0,"o":"m 1157 602 l 232 602 l 232 1111 l 139 1111 l 139 0 l 232 0 l 232 509 l 1157 509 l 1157 0 l 1250 0 l 1250 1111 l 1157 1111 z "},"I":{"ha":371,"x_min":0,"x_max":0,"o":"m 139 0 l 232 0 l 232 1111 l 139 1111 z "},"J":{"ha":1389,"x_min":0,"x_max":0,"o":"m 1157 1111 l 1063 1111 l 1063 1018 l 1157 1018 l 1157 556 b 694 93 1157 301 949 93 b 232 556 440 93 232 301 l 139 556 b 694 0 139 249 388 0 b 1250 556 1001 0 1250 249 l 1250 1111 z "},"K":{"ha":1389,"x_min":0,"x_max":0,"o":"m 1105 1111 l 232 377 l 232 1111 l 139 1111 l 139 298 l 139 176 l 139 0 l 232 0 l 232 255 l 517 495 l 1105 0 l 1250 0 l 590 556 l 1250 1111 z "},"L":{"ha":1389,"x_min":0,"x_max":0,"o":"m 949 93 l 232 93 l 232 1111 l 139 1111 l 139 93 l 139 72 l 139 0 l 949 0 l 1250 0 l 1250 93 l 1166 93 z "},"M":{"ha":1575,"x_min":0,"x_max":0,"o":"m 1089 1111 b 788 937 960 1111 848 1041 b 487 1111 728 1041 615 1111 b 139 763 295 1111 139 955 l 139 0 l 232 0 l 232 763 b 487 1018 232 904 346 1018 b 741 763 627 1018 741 904 l 741 0 l 834 0 l 834 763 b 1089 1018 834 904 948 1018 b 1343 763 1229 1018 1343 904 l 1343 0 l 1437 0 l 1437 763 b 1089 1111 1437 955 1281 1111 z "},"N":{"ha":1389,"x_min":0,"x_max":0,"o":"m 694 1111 b 139 556 388 1111 139 862 l 139 0 l 232 0 l 232 556 b 694 1018 232 810 440 1018 b 1157 556 949 1018 1157 810 l 1157 0 l 1250 0 l 1250 556 b 694 1111 1250 862 1001 1111 z "},"O":{"ha":1389,"x_min":0,"x_max":0,"o":"m 694 1111 b 139 556 388 1111 139 862 b 694 0 139 249 388 0 b 1250 556 1001 0 1250 249 b 694 1111 1250 862 1001 1111 z m 694 93 b 232 556 440 93 232 301 b 694 1018 232 810 440 1018 b 1157 556 949 1018 1157 810 b 694 93 1157 301 949 93 z "},"P":{"ha":1389,"x_min":0,"x_max":0,"o":"m 949 1111 l 139 1111 l 139 1018 l 949 1018 b 1157 810 1064 1018 1157 925 b 949 602 1157 695 1064 602 l 139 602 l 139 0 l 232 0 l 232 509 l 949 509 b 1250 810 1115 509 1250 644 b 949 1111 1250 976 1115 1111 z "},"Q":{"ha":1389,"x_min":0,"x_max":0,"o":"m 694 1111 b 139 556 388 1111 139 862 b 694 0 139 249 388 0 l 695 0 b 1016 102 814 0 925 38 l 1118 0 l 1250 0 l 1087 163 b 1250 555 1188 263 1250 402 b 1250 556 1250 555 1250 555 b 694 1111 1250 862 1001 1111 z m 1021 229 l 858 391 l 792 326 l 948 170 b 695 94 876 122 789 94 b 694 93 695 94 695 93 b 232 556 440 93 232 301 b 694 1018 232 810 440 1018 b 1157 556 949 1018 1157 810 l 1157 555 b 1021 229 1157 428 1105 312 z "},"R":{"ha":1389,"x_min":0,"x_max":0,"o":"m 1250 810 b 949 1111 1250 976 1115 1111 l 139 1111 l 139 1018 l 949 1018 b 1157 810 1063 1018 1157 925 b 949 602 1157 695 1064 602 l 139 602 l 139 0 l 232 0 l 232 509 l 949 509 b 1157 301 1064 509 1157 416 l 1157 0 l 1250 0 l 1250 301 b 1109 556 1250 408 1194 502 b 1250 810 1194 609 1250 703 z "},"S":{"ha":1389,"x_min":0,"x_max":0,"o":"m 440 1111 b 139 810 274 1111 139 976 b 440 509 139 644 274 509 l 949 509 b 1157 301 1063 509 1157 416 b 949 93 1157 186 1063 93 l 139 93 l 139 0 l 949 0 b 1250 301 1115 0 1250 135 b 949 602 1250 467 1115 602 l 440 602 b 232 810 325 602 232 695 b 440 1018 232 925 325 1018 l 1250 1018 l 1250 1111 z "},"T":{"ha":1389,"x_min":0,"x_max":0,"o":"m 139 1018 l 648 1018 l 648 0 l 741 0 l 741 1018 l 1250 1018 l 1250 1111 l 139 1111 z "},"U":{"ha":1389,"x_min":0,"x_max":0,"o":"m 1157 556 b 694 93 1157 301 949 93 b 232 556 440 93 232 301 l 232 1111 l 139 1111 l 139 556 b 694 0 139 249 388 0 b 1250 556 1001 0 1250 249 l 1250 1111 l 1157 1111 z "},"V":{"ha":1526,"x_min":0,"x_max":0,"o":"m 763 202 l 252 1111 l 139 1111 l 763 0 l 1388 1111 l 1274 1111 z "},"W":{"ha":1575,"x_min":0,"x_max":0,"o":"m 1343 347 b 1089 93 1343 207 1229 93 b 834 348 948 93 834 207 l 834 1111 l 741 1111 l 741 348 b 487 93 741 207 627 93 b 232 348 346 93 232 207 l 232 1111 l 139 1111 l 139 348 b 487 0 139 156 295 0 b 788 174 615 0 728 70 b 1089 0 848 70 960 0 b 1437 348 1281 0 1437 156 l 1437 1111 l 1343 1111 z "},"X":{"ha":1389,"x_min":0,"x_max":0,"o":"m 1118 1111 l 694 630 l 271 1111 l 139 1111 l 629 556 l 139 0 l 271 0 l 694 481 l 1118 0 l 1250 0 l 760 556 l 1250 1111 z "},"Y":{"ha":1389,"x_min":0,"x_max":0,"o":"m 1157 1064 b 694 602 1157 810 949 602 b 232 1064 440 602 232 810 l 232 1111 l 139 1111 l 139 1064 b 648 511 139 773 363 535 l 648 0 l 741 0 l 741 511 b 1250 1064 1026 535 1250 773 l 1250 1111 l 1157 1111 z "},"Z":{"ha":1389,"x_min":0,"x_max":0,"o":"m 1250 1111 l 139 1111 l 139 1018 l 1043 1018 l 139 0 l 1250 0 l 1250 93 l 346 93 z "},"[":{"ha":464,"x_min":0,"x_max":0,"o":"m 139 1204 l 139 -93 l 232 -93 l 325 -93 l 325 0 l 232 0 l 232 1111 l 325 1111 l 325 1204 l 232 1204 z "},"\\":{"ha":806,"x_min":0,"x_max":0,"o":"m 139 1111 l 568 0 l 668 0 l 239 1111 z "},"]":{"ha":464,"x_min":0,"x_max":0,"o":"m 139 1204 l 139 1111 l 232 1111 l 232 0 l 139 0 l 139 -93 l 232 -93 l 325 -93 l 325 1204 l 232 1204 z "},"^":{"ha":1003,"x_min":0,"x_max":0,"o":"m 551 1111 l 453 1111 l 139 740 l 261 740 l 502 1025 l 743 740 l 865 740 z "},"_":{"ha":1019,"x_min":0,"x_max":0,"o":"m 139 -93 l 881 -93 l 881 0 l 139 0 z "},"a":{"ha":1526,"x_min":0,"x_max":0,"o":"m 139 0 l 252 0 l 763 909 l 1274 0 l 1388 0 l 763 1111 z "},"b":{"ha":1389,"x_min":0,"x_max":0,"o":"m 1250 810 b 949 1111 1250 976 1115 1111 l 139 1111 l 139 1018 l 949 1018 b 1157 810 1064 1018 1157 925 b 949 602 1157 695 1064 602 l 139 602 l 139 0 l 949 0 b 1250 301 1115 0 1250 135 b 1109 556 1250 408 1194 502 b 1250 810 1194 609 1250 703 z m 1157 301 b 949 93 1157 187 1064 93 l 232 93 l 232 509 l 949 509 b 1157 301 1064 509 1157 416 z "},"c":{"ha":1389,"x_min":0,"x_max":0,"o":"m 139 556 b 694 0 139 249 388 0 l 1250 0 l 1250 93 l 694 93 b 232 556 440 93 232 301 b 694 1018 232 810 440 1018 l 1250 1018 l 1250 1111 l 694 1111 b 139 556 388 1111 139 862 z "},"d":{"ha":1389,"x_min":0,"x_max":0,"o":"m 694 1111 l 139 1111 l 139 1018 l 694 1018 b 1157 556 949 1018 1157 810 b 694 93 1157 301 949 93 l 232 93 l 232 602 l 139 602 l 139 0 l 694 0 b 1250 556 1001 0 1250 249 b 694 1111 1250 862 1001 1111 z "},"e":{"ha":1389,"x_min":0,"x_max":0,"o":"m 139 556 b 694 0 139 249 388 0 l 1250 0 l 1250 93 l 694 93 b 234 509 455 93 258 276 l 1250 509 l 1250 602 l 234 602 b 694 1018 258 835 455 1018 l 1250 1018 l 1250 1111 l 694 1111 b 139 556 388 1111 139 862 z "},"f":{"ha":1389,"x_min":0,"x_max":0,"o":"m 949 1111 l 139 1111 l 139 1039 l 139 1018 l 139 0 l 232 0 l 232 509 l 949 509 l 949 602 l 232 602 l 232 1018 l 949 1018 l 1166 1018 l 1250 1018 l 1250 1111 z "},"g":{"ha":1389,"x_min":0,"x_max":0,"o":"m 139 556 b 694 0 139 249 388 0 l 1250 0 l 1250 602 l 852 602 l 852 509 l 1157 509 l 1157 93 l 694 93 b 232 556 440 93 232 301 b 694 1018 232 810 440 1018 l 1250 1018 l 1250 1111 l 694 1111 b 139 556 388 1111 139 862 z "},"h":{"ha":1389,"x_min":0,"x_max":0,"o":"m 1157 602 l 232 602 l 232 1111 l 139 1111 l 139 0 l 232 0 l 232 509 l 1157 509 l 1157 0 l 1250 0 l 1250 1111 l 1157 1111 z "},"i":{"ha":557,"x_min":0,"x_max":0,"o":"m 418 1018 l 418 1111 l 139 1111 l 139 1018 l 232 1018 l 232 93 l 139 93 l 139 0 l 418 0 l 418 93 l 325 93 l 325 1018 z "},"j":{"ha":1389,"x_min":0,"x_max":0,"o":"m 1157 1111 l 1063 1111 l 1063 1018 l 1157 1018 l 1157 556 b 694 93 1157 301 949 93 b 232 556 440 93 232 301 l 139 556 b 694 0 139 249 388 0 b 1250 556 1001 0 1250 249 l 1250 1111 z "},"k":{"ha":1389,"x_min":0,"x_max":0,"o":"m 1105 1111 l 232 377 l 232 1111 l 139 1111 l 139 298 l 139 176 l 139 0 l 232 0 l 232 255 l 517 495 l 1105 0 l 1250 0 l 590 556 l 1250 1111 z "},"l":{"ha":1389,"x_min":0,"x_max":0,"o":"m 949 93 l 232 93 l 232 1111 l 139 1111 l 139 93 l 139 72 l 139 0 l 949 0 l 1250 0 l 1250 93 l 1166 93 z "},"m":{"ha":1575,"x_min":0,"x_max":0,"o":"m 1089 1111 b 787 937 960 1111 848 1041 b 486 1111 727 1041 615 1111 b 139 763 294 1111 139 955 l 139 0 l 232 0 l 232 763 b 486 1018 232 904 346 1018 b 741 763 627 1018 741 904 l 741 0 l 834 0 l 834 763 b 1089 1018 834 904 948 1018 b 1343 763 1229 1018 1343 904 l 1343 0 l 1436 0 l 1436 763 b 1089 1111 1436 955 1281 1111 z "},"n":{"ha":1389,"x_min":0,"x_max":0,"o":"m 694 1111 b 139 556 388 1111 139 862 l 139 0 l 232 0 l 232 556 b 694 1018 232 810 440 1018 b 1157 556 949 1018 1157 810 l 1157 0 l 1250 0 l 1250 556 b 694 1111 1250 862 1001 1111 z "},"o":{"ha":1389,"x_min":0,"x_max":0,"o":"m 694 1111 b 139 556 388 1111 139 862 b 694 0 139 249 388 0 b 1250 556 1001 0 1250 249 b 694 1111 1250 862 1001 1111 z m 694 93 b 232 556 440 93 232 301 b 694 1018 232 810 440 1018 b 1157 556 949 1018 1157 810 b 694 93 1157 301 949 93 z m 764 556 b 694 625 764 594 733 625 b 625 556 656 625 625 594 b 694 486 625 517 656 486 b 764 556 733 486 764 517 z "},"p":{"ha":1389,"x_min":0,"x_max":0,"o":"m 949 1111 l 139 1111 l 139 0 l 232 0 l 232 509 l 949 509 b 1250 810 1115 509 1250 644 b 949 1111 1250 976 1115 1111 z m 232 1018 l 949 1018 b 1157 810 1064 1018 1157 925 b 949 602 1157 695 1010 602 l 232 602 z "},"q":{"ha":1389,"x_min":0,"x_max":0,"o":"m 694 1111 b 139 556 388 1111 139 862 b 694 0 139 249 388 0 l 695 0 b 1016 102 814 0 925 38 l 1118 0 l 1250 0 l 1087 163 b 1250 555 1188 263 1250 402 b 1250 556 1250 555 1250 555 b 694 1111 1250 862 1001 1111 z m 1021 229 l 858 391 l 792 326 l 948 170 b 695 94 876 122 789 94 b 694 93 695 94 695 93 b 232 556 439 93 232 301 b 694 1018 232 810 439 1018 b 1157 556 949 1018 1157 810 l 1157 555 b 1021 229 1157 428 1105 312 z "},"r":{"ha":1389,"x_min":0,"x_max":0,"o":"m 1250 810 b 949 1111 1250 976 1115 1111 l 139 1111 l 139 0 l 232 0 l 232 509 l 949 509 b 1157 301 1064 509 1157 416 l 1157 0 l 1250 0 l 1250 301 b 1109 556 1250 408 1194 502 b 1250 810 1194 609 1250 703 z m 232 1018 l 949 1018 b 1157 810 1063 1018 1157 925 b 949 602 1157 695 1064 602 l 232 602 z "},"s":{"ha":1389,"x_min":0,"x_max":0,"o":"m 440 1111 b 139 810 274 1111 139 976 b 440 509 139 644 274 509 l 949 509 b 1157 301 1063 509 1157 416 b 949 93 1157 186 1063 93 l 139 93 l 139 0 l 949 0 b 1250 301 1115 0 1250 135 b 949 602 1250 467 1115 602 l 440 602 b 232 810 325 602 232 695 b 440 1018 232 925 325 1018 l 1250 1018 l 1250 1111 z "},"t":{"ha":1389,"x_min":0,"x_max":0,"o":"m 139 1018 l 648 1018 l 648 0 l 741 0 l 741 1018 l 1250 1018 l 1250 1111 l 139 1111 z "},"u":{"ha":1389,"x_min":0,"x_max":0,"o":"m 1157 556 b 694 93 1157 301 949 93 b 232 556 440 93 232 301 l 232 1111 l 139 1111 l 139 556 b 694 0 139 249 388 0 b 1250 556 1001 0 1250 249 l 1250 1111 l 1157 1111 z "},"v":{"ha":1526,"x_min":0,"x_max":0,"o":"m 763 202 l 252 1111 l 139 1111 l 763 0 l 1388 1111 l 1274 1111 z "},"w":{"ha":1575,"x_min":0,"x_max":0,"o":"m 1343 348 b 1089 93 1343 207 1229 93 b 834 348 948 93 834 207 l 834 1111 l 741 1111 l 741 348 b 486 93 741 207 627 93 b 232 347 346 93 232 207 l 232 1111 l 139 1111 l 139 348 b 486 0 139 156 294 0 b 788 174 615 0 727 70 b 1089 0 848 70 960 0 b 1436 348 1281 0 1436 156 l 1436 1111 l 1343 1111 z "},"x":{"ha":1389,"x_min":0,"x_max":0,"o":"m 1118 1111 l 694 630 l 271 1111 l 139 1111 l 629 556 l 139 0 l 271 0 l 694 481 l 1118 0 l 1250 0 l 760 556 l 1250 1111 z "},"y":{"ha":1389,"x_min":0,"x_max":0,"o":"m 1157 1064 b 694 602 1157 810 949 602 b 232 1064 440 602 232 810 l 232 1111 l 139 1111 l 139 1064 b 648 511 139 773 363 535 l 648 0 l 741 0 l 741 511 b 1250 1064 1026 535 1250 773 l 1250 1111 l 1157 1111 z "},"z":{"ha":1389,"x_min":0,"x_max":0,"o":"m 1250 1111 l 139 1111 l 139 1018 l 1043 1018 l 139 0 l 1250 0 l 1250 93 l 346 93 z "},"{":{"ha":510,"x_min":0,"x_max":0,"o":"m 186 1111 l 186 602 l 139 602 l 139 509 l 186 509 l 186 0 b 279 -93 186 -52 227 -93 l 372 -93 l 372 0 l 330 0 b 279 51 302 0 279 23 l 279 504 b 227 555 279 532 256 555 b 279 607 256 555 279 578 l 279 1060 b 330 1111 279 1088 302 1111 l 372 1111 l 372 1204 l 279 1204 b 186 1111 227 1204 186 1162 z "},"|":{"ha":371,"x_min":0,"x_max":0,"o":"m 139 0 l 232 0 l 232 1111 l 139 1111 z "},"}":{"ha":510,"x_min":0,"x_max":0,"o":"m 325 602 l 325 1111 b 232 1204 325 1162 284 1204 l 139 1204 l 139 1111 l 181 1111 b 232 1060 209 1111 232 1088 l 232 607 b 284 555 232 578 255 555 b 232 504 255 555 232 532 l 232 51 b 181 0 232 23 209 0 l 139 0 l 139 -93 l 232 -93 b 325 0 284 -93 325 -52 l 325 509 l 372 509 l 372 602 z "},"€":{"ha":1482,"x_min":0,"x_max":0,"o":"m 347 416 l 881 416 l 881 509 l 328 509 b 325 556 326 525 325 540 b 328 602 325 571 326 587 l 881 602 l 881 695 l 347 695 b 788 1018 402 868 569 1018 l 1343 1018 l 1343 1111 l 788 1111 b 250 696 517 1111 306 919 l 139 695 l 139 602 l 234 602 b 232 555 233 587 232 571 b 234 509 232 540 233 524 l 139 509 l 139 416 l 250 416 b 446 117 281 295 347 195 b 788 0 546 39 660 0 l 1343 0 l 1343 93 l 788 93 b 347 416 569 93 402 243 z "},"¢":{"ha":1389,"x_min":0,"x_max":0,"o":"m 788 1204 l 694 1204 l 694 1111 b 139 555 388 1111 139 862 b 694 0 139 249 388 0 l 694 -93 l 788 -93 l 788 0 b 1228 0 788 0 1228 0 b 1250 0 1236 0 1243 0 l 1250 93 l 788 93 l 788 1018 l 1250 1018 l 1250 1111 l 788 1111 z m 694 1018 l 694 93 b 232 555 440 93 232 300 b 694 1018 232 810 440 1018 z "},"£":{"ha":1121,"x_min":0,"x_max":0,"o":"m 325 509 l 649 509 l 649 602 l 325 602 l 325 810 b 533 1018 325 925 419 1018 l 742 1018 l 742 1111 l 533 1111 b 232 810 367 1111 232 976 l 232 602 l 139 602 l 139 509 l 232 509 l 232 93 l 139 93 l 139 0 l 982 0 l 982 93 l 325 93 z "},"¥":{"ha":1389,"x_min":0,"x_max":0,"o":"m 1250 1111 l 1125 1111 l 741 678 l 694 626 l 648 678 l 264 1111 l 139 1111 l 606 584 l 323 584 l 323 491 l 648 491 l 648 398 l 323 398 l 323 305 l 648 305 l 648 0 l 741 0 l 741 305 l 1065 305 l 1065 398 l 741 398 l 741 491 l 1065 491 l 1065 584 l 782 584 z "}}}
